<svg width="131" height="19" viewBox="37.6 37.6 131.2 18.8" fill="none" xmlns="http://www.w3.org/2000/svg">
<path d="M59.7696 38.0558L56.1428 49.7763L52.4856 38.0558H49.2922L45.6655 49.7763L42.0083 38.0558H37.6364L43.9471 55.9367H47.3458L50.9041 44.6946L54.4549 55.9367H57.8307L64.1415 38.0558H59.7696Z" fill="black"/>
<path d="M83.2866 55.9367L82.5947 53.7642H76.2308L75.5389 55.9367H71.1137L77.5081 38.0558H81.3174L87.7802 55.9291H83.279L83.2866 55.9367ZM79.4242 43.1678L77.2268 50.5207H81.5683L79.4242 43.1678Z" fill="black"/>
<path d="M111.677 38.0558H106.842L103.032 45.082L99.2232 38.0558H94.3875L100.934 49.5788V55.9367H105.131V49.5788L111.677 38.0558Z" fill="black"/>
<path d="M139.832 55.9367H135.795V44.8541L131.933 55.9367H128.868L124.884 44.8541V55.9367H120.839V38.0634H125.622L130.404 50.4903L135.126 38.0634H139.832V55.9367Z" fill="black"/>
<path d="M149.778 46.9962C149.778 42.0968 153.306 37.6 159.259 37.6C165.212 37.6 168.717 42.0968 168.717 46.9962C168.717 51.8956 165.19 56.3924 159.259 56.3924C153.328 56.3924 149.778 51.8956 149.778 46.9962ZM164.498 46.9962C164.498 44.0566 162.506 41.3296 159.259 41.3296C156.012 41.3296 154.02 44.0642 154.02 46.9962C154.02 49.9282 155.99 52.6628 159.259 52.6628C162.528 52.6628 164.498 49.9282 164.498 46.9962Z" fill="black"/>
</svg>
